<svg width="118" height="25" viewBox="0 0 118 25" fill="none" xmlns="http://www.w3.org/2000/svg">
<path d="M87.0809 2.92306L84.7977 6.12211H89.3765L87.0809 2.92306ZM60.7346 4.90545C61.165 4.77562 61.4184 4.49323 61.4184 4.14255C61.4184 3.7989 61.1521 3.55001 60.7219 3.43306C60.3299 3.30341 59.7268 3.28844 59.1486 3.28844H55.0639V5.07088H59.0939C59.7393 5.07098 60.2786 5.0655 60.7346 4.90545ZM8.39437 2.92306L6.13704 6.12211H10.6653L8.39437 2.92306ZM113.492 23.4171H107.086V21.6959H113.466C114.099 21.6959 114.542 21.648 114.809 21.4971C115.061 21.3626 115.203 21.1725 115.201 20.9738C115.201 20.7399 115.04 20.5542 114.795 20.443C114.555 20.3205 114.204 20.2647 113.626 20.2647C110.512 20.2036 106.626 20.3203 106.626 17.7804C106.626 16.6163 107.905 15.3909 111.386 15.3909H117.993V13.7939H111.854C110.002 13.7939 108.655 14.0504 107.702 14.4495V13.7939H98.622C97.1701 13.7939 95.4657 14.0019 94.6597 14.4495V13.7939H78.4434V14.4495C77.1531 13.9111 74.9752 13.7939 73.9707 13.7939H63.2745V14.4495C62.2538 13.8778 59.9828 13.7939 58.5995 13.7939H46.6287L43.8898 15.508L41.3242 13.7939H23.4423V24.9945H40.9868L43.8091 23.2529L46.4679 24.9945L57.2824 25V22.3652H58.3459C59.7807 22.3785 61.473 22.3448 62.9665 21.9716V24.9942H71.8866V22.0748H72.3168C72.8657 22.0748 72.9201 22.0881 72.9201 22.4053V24.9935H100.018C101.739 24.9935 103.537 24.7392 104.533 24.2765V24.9935H113.128C114.917 24.9935 116.664 24.8485 117.993 24.4774V22.3909C117.187 23.0722 115.617 23.4176 113.492 23.4176L113.492 23.4171ZM58.488 20.7725H54.3488V23.4647H47.9013L43.8166 20.8077L39.5719 23.4647H26.4321V15.4382H39.774L43.855 18.0692L48.0744 15.4382H58.6741C61.3066 15.4382 64.2643 15.8597 64.2643 18.0825C64.2643 20.3122 61.3875 20.7725 58.488 20.7725V20.7725ZM78.3911 20.4085C78.8596 20.8003 78.9272 21.166 78.9408 21.8736V23.4648H75.6101V22.4607C75.6101 21.9778 75.6908 21.2627 75.074 20.8895C74.5899 20.6021 73.8507 20.5334 72.6401 20.5334H69.0952V23.4648H65.7622V15.4383H73.4203C75.1003 15.4383 76.3231 15.4814 77.4118 15.817C78.4587 16.1827 79.1175 16.6838 79.1175 17.5994C79.1172 18.8804 77.6396 19.534 76.7664 19.7348C77.5044 19.8923 78.1077 20.1747 78.3911 20.4085V20.4085ZM92.0937 17.0982H84.3258V18.5573H91.9039V20.1951H84.3258V21.7921L92.0937 21.7992V23.4647H81.0224V15.4382H92.0937V17.0982V17.0982ZM100.618 23.4646H94.1571V21.7434H100.592C101.221 21.7434 101.668 21.6953 101.947 21.5446C102.175 21.4205 102.339 21.24 102.339 21.0214C102.339 20.7873 102.161 20.6016 101.934 20.4902C101.68 20.3679 101.33 20.3125 100.753 20.3125C97.6506 20.2509 93.7656 20.3677 93.7656 17.8279C93.7656 16.6637 95.0308 15.4383 98.5084 15.4383H105.159V17.1464H99.0734C98.4703 17.1464 98.0781 17.1597 97.7447 17.2917C97.3809 17.4217 97.2462 17.6145 97.2462 17.8689C97.2462 18.1717 97.5548 18.3778 97.9719 18.4669C98.322 18.5372 98.6976 18.5578 99.2628 18.5578L101.049 18.586C102.849 18.6109 104.086 18.7914 104.837 19.2313C105.482 19.6177 105.829 20.1058 105.829 20.9318C105.829 22.6585 103.963 23.4646 100.618 23.4646V23.4646ZM74.8902 17.2276C74.4894 17.09 73.8979 17.0827 73.3076 17.0827H69.2227V18.8853H73.253C73.8982 18.8853 74.4469 18.872 74.8902 18.7198C75.3201 18.5696 75.5775 18.2927 75.5775 17.9495C75.5775 17.6062 75.3201 17.3577 74.8902 17.2276ZM111.954 17.0825C111.35 17.0825 110.949 17.0957 110.611 17.2275C110.261 17.3577 110.127 17.5504 110.127 17.805C110.127 18.1076 110.422 18.3137 110.852 18.4029C111.202 18.4733 111.578 18.4939 112.13 18.4939L113.928 18.5215C115.742 18.5476 116.954 18.7281 117.692 19.1679C117.827 19.2289 117.908 19.2976 118 19.3664V17.0827H111.954L111.954 17.0825V17.0825ZM58.6028 17.0825H54.2775V19.1268H58.5644C59.8388 19.1268 60.6314 18.761 60.632 18.0667C60.6314 17.3648 59.8004 17.0825 58.6028 17.0825V17.0825ZM29.736 17.0825V18.5418H37.0183V20.1795H29.736V21.7764H37.8917L41.6809 19.4217L38.0526 17.0825H29.736ZM51.0325 22.6955V16.2605L45.9396 19.4262L51.0325 22.6955V22.6955ZM30.0144 9.80853V11.1915H57.7284L57.7155 8.26574H58.2518C58.6275 8.27332 58.7367 8.29331 58.7367 8.65185V11.1916H73.0707V10.5104C74.2268 10.8687 76.0248 11.1916 78.3911 11.1916H84.4213L85.7119 9.40927H88.5732L89.8352 11.1916H101.456V9.49856L103.215 11.1915H112.527V0H103.312V1.32175L102.021 0H92.5648V1.32175L91.3798 0H78.6062C76.4678 0 74.5888 0.172556 73.0705 0.653524V0H64.2554V0.653524C63.2892 0.157766 61.9727 0 60.5093 0H28.3052L26.1445 2.89074L23.9255 0H13.7822V1.32175L12.6677 0H4.01723L0.000151285 5.32132V9.57781L5.94022 1.5531H10.8689L16.5104 9.1508V1.5531H21.9247L26.2659 6.99686L30.254 1.5531H35.777V9.57781H32.3769L32.3645 3.293L27.5542 9.57781H24.6417L19.8191 3.28743V9.57781H13.0718L11.7972 7.78788H4.89045L3.60271 9.57781H0V11.1922H5.66806L6.94596 9.40973H9.80737L11.082 11.1922H22.2336V9.82934L23.229 11.1978H29.018L30.0135 9.8088L30.0144 9.80853ZM73.6859 2.48847C74.7578 1.848 76.4375 1.55265 78.7234 1.55265H81.9348V3.2721H78.7908C77.5808 3.2721 76.8965 3.37618 76.2384 3.74759C75.6726 4.0854 75.2847 4.72413 75.2847 5.56518C75.2847 6.42495 75.5805 7.04479 76.1967 7.4497C76.7074 7.76724 77.6359 7.86357 78.5088 7.86357H79.9991L84.6741 1.55292H89.6443L95.2606 9.14304V1.55301H100.311L106.142 7.14175V1.55301H109.54V9.57745H104.84L98.5518 3.55458V9.57745H91.796L90.5052 7.78751H83.6142L82.3619 9.57745H78.4799C76.8676 9.57745 74.8262 9.37129 73.6701 8.68983C72.5041 8.00855 71.8981 7.0856 71.8981 5.62644C71.8975 4.43617 72.2595 3.34824 73.6859 2.48847V2.48847ZM66.8628 1.55274H70.2474V9.57745H66.8628V1.55274ZM51.6027 1.55274H59.2323C60.9271 1.55274 62.1769 1.57876 63.2494 1.93711C64.2987 2.29555 64.9279 2.81888 64.9279 3.7138C64.9279 4.99337 63.4509 5.65429 62.5908 5.85287C63.3164 6.01264 63.9367 6.29485 64.2321 6.52858C64.7005 6.92774 64.7811 7.28427 64.7811 8.00088V9.57735H61.4355L61.4229 8.56539C61.4229 8.08241 61.5028 7.38798 60.8993 7.00215C60.4147 6.72003 59.6757 6.65859 58.4813 6.65859H54.9204V9.57745H51.6031L51.6027 1.55274V1.55274ZM38.2301 1.55274H49.3116V3.2238H41.5476V4.67026H49.1252V6.31521H41.5476V7.9178H49.3116V9.57735H38.2301V1.55274V1.55274Z" fill="white"/>
</svg>




