<svg width="121" height="47" viewBox="0 0 121 47" fill="none" xmlns="http://www.w3.org/2000/svg">
<g clip-path="url(#clip0_2601_231)">
<path d="M0.015625 0H120.985V47H0.015625V0Z" fill="black"/>
<path d="M24.9387 14.3973C26.1029 14.0782 27.3448 13.908 28.6332 13.908C34.2731 13.908 38.9817 17.2011 40.058 21.579L48.0523 20.2388C46.2206 12.8019 38.2211 7.20288 28.6332 7.20288C26.4341 7.20288 24.3281 7.49644 22.3516 8.04103L24.9387 14.3973Z" fill="#FFCB05"/>
<path d="M15.5075 35.6957L20.9146 30.6711C18.5034 28.914 16.9821 26.3485 16.9821 23.4894C16.9821 20.6346 18.5034 18.0691 20.9146 16.3162L15.5075 11.2874C11.4094 14.274 8.82227 18.635 8.82227 23.4894C8.82227 28.3481 11.4094 32.709 15.5075 35.6957" fill="#00A4E0"/>
<path d="M40.058 25.4124C38.9766 29.786 34.2731 33.0748 28.6383 33.0748C27.3448 33.0748 26.0977 32.9046 24.9387 32.5813L22.3516 38.9461C24.3281 39.4864 26.4393 39.78 28.6383 39.78C38.2159 39.78 46.2102 34.1895 48.0523 26.761L40.058 25.4124Z" fill="#EF4123"/>
<path d="M55.0446 30.8795C54.7808 30.5306 54.4289 29.9733 54.2116 29.5606C52.9439 27.144 52.887 24.6423 53.9529 22.2427C55.1274 19.6092 57.3731 17.5968 60.2759 16.5672C63.9237 15.278 67.9545 15.5291 71.4523 17.2351C73.6721 18.2818 75.2451 19.8985 76.4403 22.1874C76.5904 22.481 76.7249 22.7916 76.8595 23.0596L55.0446 30.8795ZM62.3301 20.4516C59.7377 21.3663 58.4028 23.3659 58.6822 25.7059L69.6517 21.8215C67.7631 20.0006 65.3104 19.3964 62.3301 20.4516V20.4516ZM71.0177 28.9011C71.0125 28.9011 71.0125 28.9054 71.0125 28.9054L70.7848 28.7777C70.1277 29.6499 69.1084 30.3604 67.82 30.8199C65.3674 31.6963 63.0958 31.4709 61.4608 30.2923L61.3107 30.4795C61.3107 30.4795 61.3107 30.4753 61.3055 30.4753L58.5218 33.9002C59.2151 34.2959 59.9551 34.6277 60.7312 34.8958C63.8047 35.9466 66.9507 35.8956 70.0501 34.7894C72.2906 33.9895 74.0498 32.7727 75.2503 31.2283L71.0177 28.9011ZM84.4812 11.5298V30.5646L88.0825 31.7644L86.0387 35.6871L82.0648 34.3257C81.1748 34.0066 80.5643 33.5215 80.1089 32.9727C79.6691 32.4154 79.3431 31.6453 79.3431 30.6157V11.5298H84.4812ZM93.8053 25.7187C93.8053 24.0977 94.6797 22.6427 96.0561 21.6556L92.3616 18.269C89.8573 20.0899 88.2791 22.749 88.2791 25.7102C88.274 28.6756 89.8521 31.339 92.3513 33.1599L96.0406 29.7733C94.6694 28.782 93.8053 27.3354 93.8053 25.7187V25.7187ZM100.366 31.1177C99.6419 31.1177 98.9382 31.0156 98.2862 30.8369L96.5218 35.1468C97.7274 35.4786 99.0158 35.6616 100.361 35.6616C106.208 35.6658 111.087 32.2537 112.221 27.7226L106.798 26.8121C106.182 29.2755 103.538 31.122 100.366 31.1177V31.1177ZM100.382 15.7758C99.0417 15.7758 97.7533 15.9545 96.5476 16.2821L98.2966 20.5962C98.9537 20.4175 99.6522 20.3197 100.377 20.3197C103.554 20.3239 106.203 22.1789 106.803 24.6466L112.226 23.7446C111.113 19.205 106.234 15.7801 100.382 15.7758V15.7758Z" fill="white"/>
</g>
<defs>
<clipPath id="clip0_2601_231">
<rect width="121" height="47" fill="white"/>
</clipPath>
</defs>
</svg>
