<svg width="71" height="24" viewBox="0 0 71 24" fill="none" xmlns="http://www.w3.org/2000/svg">

<path d="M10.9116 5.23146C11.6997 4.99943 12.5404 4.87568 13.4126 4.87568C17.2308 4.87568 20.4184 7.27021 21.147 10.4536L26.5589 9.47912C25.3189 4.07132 19.9035 0 13.4126 0C11.9239 0 10.4983 0.213466 9.16016 0.60946L10.9116 5.23146Z" fill="#FFCB05"/>
<path d="M4.52571 20.7186L8.18621 17.0649C6.55388 15.7872 5.52403 13.9217 5.52403 11.8427C5.52403 9.76684 6.55388 7.90134 8.18621 6.62673L4.52571 2.96997C1.75144 5.14175 0 8.3128 0 11.8427C0 15.3757 1.75144 18.5468 4.52571 20.7186Z" fill="#00A4E0"/>
<path d="M21.147 13.241C20.4149 16.4213 17.2308 18.8127 13.4161 18.8127C12.5404 18.8127 11.6962 18.689 10.9116 18.4539L9.16016 23.082C10.4983 23.4749 11.9274 23.6884 13.4161 23.6884C19.9 23.6884 25.3119 19.6233 26.5589 14.2217L21.147 13.241Z" fill="#EF4123"/>
<path d="M31.2916 17.2166C31.1129 16.9629 30.8747 16.5577 30.7276 16.2576C29.8694 14.5003 29.8309 12.6812 30.5525 10.9364C31.3476 9.02138 32.8679 7.55806 34.833 6.80938C37.3025 5.87199 40.0313 6.05452 42.3992 7.2951C43.9019 8.05615 44.9668 9.23176 45.776 10.8962C45.8776 11.1096 45.9686 11.3355 46.0597 11.5304L31.2916 17.2166ZM36.2236 9.63394C34.4687 10.2991 33.565 11.7531 33.7541 13.4547L41.1802 10.6301C39.9017 9.30601 38.2413 8.8667 36.2236 9.63394ZM42.105 15.778C42.1015 15.778 42.1015 15.7811 42.1015 15.7811L41.9473 15.6883C41.5025 16.3225 40.8124 16.8392 39.9402 17.1733C38.2798 17.8106 36.7421 17.6466 35.6352 16.7897L35.5336 16.9258C35.5336 16.9258 35.5336 16.9227 35.5301 16.9227L33.6455 19.4131C34.1149 19.7009 34.6158 19.9422 35.1412 20.1371C37.222 20.9012 39.3517 20.8641 41.4499 20.0597C42.9667 19.4781 44.1576 18.5933 44.9703 17.4703L42.105 15.778Z" fill="white"/>
<path d="M51.2186 3.14624V16.9875L53.6566 17.8599L52.273 20.7123L49.5827 19.7223C48.9803 19.4903 48.5669 19.1376 48.2587 18.7385C47.9609 18.3332 47.7402 17.7733 47.7402 17.0246V3.14624H51.2186Z" fill="white"/>
<path d="M57.5321 13.464C57.5321 12.2853 58.1241 11.2272 59.0558 10.5095L56.5548 8.04688C54.8594 9.37098 53.791 11.3045 53.791 13.4578C53.7875 15.6141 54.8559 17.5507 56.5478 18.8748L59.0453 16.4123C58.1171 15.6914 57.5321 14.6396 57.5321 13.464Z" fill="white"/>
<path d="M61.9718 17.3901C61.4814 17.3901 61.005 17.3159 60.5636 17.1859L59.3691 20.3198C60.1853 20.5612 61.0575 20.6942 61.9683 20.6942C65.9265 20.6973 69.2297 18.2161 69.9969 14.9213L66.3258 14.2593C65.909 16.0505 64.119 17.3932 61.9718 17.3901Z" fill="white"/>
<path d="M61.9823 6.23389C61.0751 6.23389 60.2029 6.36382 59.3867 6.60204L60.5707 9.73906C61.0156 9.60912 61.4884 9.53797 61.9788 9.53797C64.1296 9.54106 65.9231 10.8899 66.3294 12.6843L70.0004 12.0284C69.2473 8.72741 65.9441 6.23698 61.9823 6.23389Z" fill="white"/>
</svg>

