<svg width="118" height="41" viewBox="0 0 118 41" fill="none" xmlns="http://www.w3.org/2000/svg">
<g clip-path="url(#clip0_2607_194)">
<path d="M32.3986 0.0175781H20.1716C14.7688 0.21783 10.3527 1.92369 9.07752 5.44144C8.41263 7.27603 8.04672 9.29089 7.5268 11.1926C4.88367 20.8625 2.53998 30.7988 0.0117188 40.2756H95.2038C102.563 40.2756 107.616 39.0565 108.982 34.4774C109.616 32.3504 110.224 29.9413 110.831 27.6044C113.196 18.4927 115.565 9.38148 117.988 0.0175781H32.3986Z" fill="#822124"/>
<path d="M31.4449 14.3253C31.9562 14.0492 32.6149 12.7916 31.8625 12.268C31.6241 12.1022 31.2256 12.0541 30.6695 12.1278C30.1538 12.1961 29.8571 12.3335 29.6556 12.5487C29.3319 12.8945 29.0347 13.9379 29.5364 14.3255C30.025 14.7028 31.1195 14.5009 31.4449 14.3253ZM24.1684 12.268C23.802 14.1316 23.3893 15.9589 22.9754 17.7853C20.3184 17.8073 17.6056 17.8881 15.0428 17.7385C15.5268 15.9517 15.874 14.0574 16.355 12.268H13.4921C12.4673 16.826 11.5349 21.4569 10.3906 25.9212H13.3133C13.7716 23.6313 14.2005 21.3178 14.8043 19.1414C17.2962 19.0932 20.2827 19.0094 22.6774 19.1882C22.1836 21.4509 21.5871 23.6324 21.1267 25.9212H24.0493C24.9886 21.2958 25.9778 16.71 27.151 12.268H24.1684ZM65.5018 16.1957C63.2278 15.4756 61.4399 16.6924 60.6111 17.8322C60.7991 17.3251 60.8765 16.7313 61.0288 16.1957H58.7623C58.2081 19.5644 57.3915 22.727 56.6152 25.9212H59.1801C59.5395 24.0253 59.6947 21.4694 60.492 19.6557C61.1293 18.2064 62.7973 16.9716 65.2039 17.6452C65.2373 17.1105 65.4325 16.7024 65.5018 16.1957ZM66.933 23.6302C66.6965 23.1513 66.6356 22.3608 66.6947 21.7597C66.8272 20.4088 67.4552 18.7639 68.4244 18.0192C69.7619 16.9914 72.4022 17.1615 74.5083 17.7387C74.5734 17.1822 74.716 16.6859 74.8066 16.149C71.3526 15.7068 68.0752 15.982 66.3373 17.4115C64.6359 18.8109 63.521 22.0273 64.3091 24.0511C65.2317 26.4192 69.3693 26.548 72.719 25.6409C72.8672 25.1649 72.9457 24.6342 73.0768 24.1448C71.2461 24.89 67.7466 25.2775 66.933 23.6302ZM95.7413 16.2423C93.4745 15.3538 91.5873 16.8447 90.8506 17.7385C91.0605 17.2799 91.0725 16.6657 91.268 16.1955H89.0016C88.3905 19.535 87.654 22.776 86.795 25.9211H89.4194C89.4359 24.632 89.7589 23.6785 90.0155 22.4146C90.5639 19.7152 91.3694 16.7552 95.384 17.645C95.5167 17.1886 95.572 16.6708 95.7413 16.2423ZM28.8205 16.1957C28.751 16.2035 28.7557 16.2696 28.7608 16.3358C28.1957 19.649 27.4308 22.8058 26.6137 25.9211H29.1783C29.7946 22.5856 30.5005 19.3207 31.3851 16.1955L28.8205 16.1957ZM51.366 16.0087C49.5128 16.1207 47.9463 16.5386 46.8331 17.4582C45.4676 18.5858 44.362 21.0791 44.686 23.3497C45.1483 26.589 50.293 26.4726 54.4079 25.6876C54.4781 25.119 54.6536 24.6329 54.7657 24.0977C53.0707 24.595 50.1275 25.2891 48.3836 24.4252C47.0672 23.7726 47.0596 22.1206 47.489 20.6846C50.2546 20.6156 53.1291 20.6286 55.8987 20.6846C56.0742 19.6668 56.577 18.5571 56.1372 17.5519C55.5573 16.2247 53.4799 15.8809 51.366 16.0087ZM53.8114 19.5622H47.787C47.9778 18.4765 49.2238 17.2832 51.187 17.2244C53.0346 17.169 54.3574 17.7561 53.8114 19.5622ZM41.6441 16.1957C39.4734 15.5564 36.828 16.3195 35.6809 17.0453C35.6851 17.0773 35.6536 17.0817 35.6198 17.084C35.6392 17.0711 35.6605 17.0582 35.6809 17.0453C35.6807 17.0427 35.6803 17.04 35.6797 17.0374C35.699 16.7253 35.8391 16.5078 35.8585 16.1957H33.6517C32.7321 20.9921 31.6415 25.6544 30.4907 30.2696H33.0554C33.4266 28.4722 33.6716 26.5759 34.1888 24.8926C34.7745 26.6631 38.5989 26.3248 40.2129 25.6407C43.5424 24.229 46.1108 17.5108 41.6441 16.1957ZM39.6163 24.0977C38.2441 25.237 34.8708 25.2199 34.6061 23.3027C34.491 22.4687 34.8872 21.5941 35.0836 20.7312C35.2816 19.8578 35.4245 19.0197 35.62 18.253C36.9715 16.9593 40.9431 16.803 41.346 18.9544C41.6955 20.8222 40.7525 23.1542 39.6163 24.0977ZM105.284 11.9875C105.064 13.4984 104.771 14.9513 104.39 16.3358C98.0987 14.7747 94.2406 18.4034 94.3101 22.8821C94.3238 23.7482 94.5139 24.6072 95.2045 25.2199C96.3958 26.2754 99.8053 26.5283 101.527 25.6406C101.86 25.4688 102.201 25.1562 102.422 24.9394C102.588 24.7762 102.851 24.3486 102.899 24.4717C102.808 24.9461 102.673 25.3858 102.661 25.9211H104.987C105.435 20.8797 106.821 16.5739 107.85 11.9873H105.284V11.9875H105.284ZM99.5586 24.8457C97.8321 24.8748 96.9736 24.0371 96.934 22.6482C96.8652 20.2158 98.2263 17.5134 100.99 17.271C102.277 17.1583 103.208 17.3928 104.151 17.6452C103.286 20.3775 103.598 24.7778 99.5586 24.8457ZM77.4305 16.1957C77.3043 16.7512 77.1104 17.2539 76.9534 17.7853C78.4669 17.4878 83.1795 16.5757 83.6336 18.1593C83.7844 18.6855 83.5243 19.2445 83.3353 19.6557C79.0741 19.3393 75.6007 19.8943 74.6868 22.274C74.075 23.8681 74.7554 25.4367 76.0588 25.8746C78.569 26.7177 81.6223 25.7518 82.6792 24.4252C82.5695 24.8844 82.4655 25.3486 82.5007 25.9212H84.7073C84.7309 24.2644 85.0384 22.9233 85.3633 21.4324C85.6403 20.1628 86.1616 18.9059 86.0792 17.7853C85.8893 15.2191 80.4662 16.1269 77.4305 16.1957ZM81.6056 24.0509C80.2839 25.0652 76.5738 25.3533 76.9534 22.9287C77.2684 20.9149 80.0655 20.487 83.0963 20.7777C82.8712 21.8793 82.6128 23.278 81.6056 24.0509Z" fill="white"/>
</g>
<defs>
<clipPath id="clip0_2607_194">
<rect width="118" height="40.2581" fill="white" transform="translate(0 0.0175781)"/>
</clipPath>
</defs>
</svg>
