<svg width="113" height="24" viewBox="0 0 113 24" fill="none" xmlns="http://www.w3.org/2000/svg">
<g clip-path="url(#clip0_2603_188)">
<path d="M31.0263 0H19.3174C14.1435 0.119381 9.91448 1.13634 8.69338 3.23346C8.05666 4.32715 7.70625 5.52832 7.20837 6.66206C4.67723 12.4268 2.43285 18.3503 0.0117188 24H91.1703C98.2177 24 103.057 23.2732 104.364 20.5434C104.972 19.2753 105.554 17.8392 106.135 16.446C108.401 11.014 110.668 5.58233 112.989 0H31.0263Z" fill="#822124"/>
<path d="M30.1114 8.52957C30.601 8.36494 31.2318 7.61521 30.5112 7.30307C30.283 7.20425 29.9013 7.17557 29.3689 7.21951C28.875 7.26021 28.5909 7.34214 28.3979 7.4704C28.0879 7.67658 27.8033 8.2986 28.2837 8.52967C28.7517 8.75458 29.7998 8.63423 30.1114 8.52957V8.52957ZM23.1431 7.30307C22.7923 8.41408 22.3971 9.50344 22.0008 10.5923C19.4563 10.6054 16.8584 10.6535 14.4043 10.5643C14.8678 9.49912 15.2002 8.36981 15.6609 7.30307H12.9192C11.9379 10.0204 11.045 12.7811 9.94922 15.4425H12.748C13.1869 14.0774 13.5977 12.6982 14.1758 11.4007C16.5621 11.372 19.4222 11.322 21.7153 11.4286C21.2425 12.7775 20.6712 14.078 20.2303 15.4425H23.0292C23.9287 12.6851 24.8759 9.9512 25.9994 7.30307H23.1431V7.30307ZM62.7251 9.64458C60.5475 9.21533 58.8354 9.94071 58.0417 10.6202C58.2218 10.3179 58.2958 9.96387 58.4417 9.64458H56.2712C55.7405 11.6528 54.9585 13.5383 54.2151 15.4425H56.6713C57.0155 14.3122 57.1641 12.7885 57.9277 11.7073C58.538 10.8433 60.1352 10.1072 62.4399 10.5087C62.4719 10.19 62.6588 9.94666 62.7251 9.64458V9.64458ZM64.0957 14.0767C63.8693 13.7912 63.811 13.32 63.8675 12.9616C63.9944 12.1562 64.5958 11.1756 65.524 10.7317C66.8047 10.119 69.3332 10.2204 71.35 10.5645C71.4124 10.2327 71.549 9.93681 71.6357 9.61676C68.3281 9.35311 65.1895 9.51719 63.5253 10.3694C61.8959 11.2037 60.8283 13.1211 61.583 14.3276C62.4665 15.7394 66.4288 15.8161 69.6366 15.2754C69.7785 14.9916 69.8537 14.6752 69.9792 14.3835C68.2261 14.8277 64.8748 15.0587 64.0957 14.0767V14.0767ZM91.6834 9.6724C89.5126 9.1427 87.7054 10.0315 86.9999 10.5643C87.2008 10.2909 87.2124 9.9248 87.3996 9.64447H85.2292C84.644 11.6353 83.9387 13.5675 83.1162 15.4424H85.6293C85.6451 14.6739 85.9545 14.1055 86.2002 13.352C86.7253 11.7428 87.4967 9.97816 91.3412 10.5086C91.4683 10.2365 91.5213 9.92783 91.6834 9.6724ZM27.5982 9.64458C27.5317 9.64924 27.5361 9.68863 27.541 9.72814C26.9998 11.7033 26.2673 13.5852 25.4849 15.4424H27.9408C28.531 13.4539 29.207 11.5076 30.0541 9.64447L27.5982 9.64458V9.64458ZM49.1884 9.5331C47.4137 9.59988 45.9136 9.84903 44.8475 10.3972C43.5399 11.0695 42.4812 12.5558 42.7914 13.9095C43.2341 15.8406 48.1609 15.7712 52.1014 15.3032C52.1686 14.9642 52.3367 14.6745 52.444 14.3554C50.8208 14.6519 48.0023 15.0656 46.3323 14.5507C45.0717 14.1616 45.0644 13.1768 45.4756 12.3206C48.124 12.2795 50.8767 12.2873 53.529 12.3206C53.6971 11.7139 54.1785 11.0524 53.7574 10.4531C53.2021 9.6619 51.2127 9.45691 49.1884 9.5331ZM51.5301 11.6515H45.761C45.9438 11.0043 47.1369 10.2929 49.0169 10.2578C50.7862 10.2248 52.053 10.5748 51.5301 11.6515V11.6515ZM39.8784 9.64458C37.7997 9.26349 35.2663 9.7184 34.1679 10.1511C34.1719 10.1702 34.1417 10.1728 34.1093 10.1742C34.128 10.1665 34.1484 10.1588 34.1679 10.1511C34.1677 10.1495 34.1673 10.1479 34.1668 10.1463C34.1852 9.9603 34.3193 9.83063 34.338 9.64458H32.2247C31.344 12.504 30.2996 15.2834 29.1976 18.0348H31.6536C32.0091 16.9633 32.2437 15.8328 32.739 14.8293C33.2998 15.8847 36.9623 15.6831 38.5078 15.2753C41.6963 14.4337 44.1558 10.4286 39.8784 9.64458V9.64458ZM37.9365 14.3554C36.6225 15.0346 33.3921 15.0244 33.1386 13.8815C33.0284 13.3842 33.4078 12.8629 33.5959 12.3485C33.7855 11.8277 33.9224 11.3281 34.1095 10.8711C35.4038 10.0998 39.2071 10.0066 39.593 11.2892C39.9276 12.4027 39.0246 13.7929 37.9365 14.3554V14.3554ZM100.822 7.13585C100.611 8.03656 100.33 8.90275 99.9654 9.72814C93.9409 8.79744 90.2463 10.9607 90.3128 13.6307C90.3259 14.1471 90.508 14.6591 91.1693 15.0244C92.3101 15.6537 95.5751 15.8044 97.224 15.2752C97.5429 15.1728 97.8692 14.9864 98.0805 14.8572C98.2395 14.7599 98.4917 14.505 98.5376 14.5784C98.4507 14.8612 98.3212 15.1233 98.3094 15.4424H100.537C100.967 12.437 102.294 9.87003 103.279 7.13574H100.822V7.13585H100.822ZM95.3389 14.8013C93.6856 14.8187 92.8635 14.3193 92.8255 13.4913C92.7597 12.0412 94.063 10.4301 96.7097 10.2856C97.9419 10.2184 98.8341 10.3583 99.737 10.5087C98.908 12.1376 99.2072 14.7609 95.3389 14.8013V14.8013ZM74.1484 9.64458C74.0275 9.97577 73.8419 10.2755 73.6916 10.5923C75.1409 10.4149 79.6538 9.87111 80.0887 10.8152C80.2331 11.1289 79.984 11.4621 79.803 11.7073C75.7224 11.5186 72.3962 11.8495 71.521 13.2682C70.9351 14.2185 71.5867 15.1536 72.8348 15.4147C75.2387 15.9173 78.1626 15.3415 79.1748 14.5507C79.0696 14.8244 78.9701 15.1011 79.0038 15.4425H81.1168C81.1395 14.4548 81.434 13.6553 81.7451 12.7665C82.0104 12.0096 82.5096 11.2603 82.4307 10.5923C82.2488 9.0624 77.0555 9.60356 74.1484 9.64458V9.64458ZM78.1466 14.3275C76.8809 14.9322 73.3281 15.104 73.6916 13.6585C73.9932 12.458 76.6718 12.2029 79.5742 12.3762C79.3586 13.0329 79.1111 13.8667 78.1466 14.3275V14.3275Z" fill="white"/>
</g>
<defs>
<clipPath id="clip0_2603_188">
<rect width="113" height="24" fill="white"/>
</clipPath>
</defs>
</svg>
