<svg width="47" height="24" viewBox="0 0 47 24" fill="none" xmlns="http://www.w3.org/2000/svg">
<path fill-rule="evenodd" clip-rule="evenodd" d="M45.5517 23.672V23.7336H45.6365C45.6524 23.7338 45.6682 23.7311 45.682 23.7258C45.6932 23.7204 45.6997 23.7115 45.699 23.7022C45.6996 23.693 45.6932 23.6843 45.682 23.6792C45.6683 23.6736 45.6525 23.6709 45.6365 23.6713H45.5517V23.672ZM45.6373 23.6283C45.6738 23.6268 45.7097 23.6339 45.7392 23.6484C45.7633 23.6617 45.7765 23.682 45.7751 23.703C45.7761 23.721 45.7656 23.7385 45.7463 23.7509C45.7236 23.7643 45.695 23.7724 45.6649 23.7739L45.7786 23.8618H45.691L45.5865 23.7745H45.5526V23.8618H45.4793V23.6285H45.6385L45.6373 23.6283ZM45.6146 23.9423C45.6531 23.9426 45.6912 23.9373 45.7264 23.9269C45.7603 23.917 45.7911 23.9028 45.8174 23.8851C45.8435 23.8674 45.8644 23.8465 45.879 23.8234C45.9088 23.7745 45.9088 23.7196 45.879 23.6707C45.8643 23.6477 45.8433 23.6268 45.8174 23.609C45.7911 23.5913 45.7603 23.5771 45.7264 23.5672C45.6909 23.5574 45.653 23.5524 45.6146 23.5527C45.5757 23.5525 45.5371 23.5574 45.501 23.5672C45.4663 23.5769 45.4346 23.5911 45.4079 23.609C45.3258 23.6661 45.3019 23.7514 45.3472 23.825C45.361 23.8481 45.3817 23.8691 45.4079 23.8867C45.4348 23.9045 45.4663 23.9187 45.501 23.9285C45.5369 23.9389 45.5756 23.9441 45.6146 23.9439M45.6146 23.4967C45.7146 23.4966 45.8106 23.5231 45.882 23.5706C45.9163 23.5934 45.9436 23.6206 45.9625 23.6507C46.0017 23.7129 46.0017 23.7835 45.9625 23.8458C45.9431 23.8756 45.9159 23.9028 45.882 23.9258C45.847 23.9485 45.8065 23.9668 45.7621 23.9798C45.7155 23.9932 45.6654 24.0001 45.6146 23.9999C45.5635 24.0001 45.5128 23.9933 45.4654 23.9798C45.4206 23.9671 45.3796 23.9488 45.3447 23.9258C45.3108 23.902 45.2838 23.8739 45.2654 23.8432C45.2261 23.7809 45.2261 23.7103 45.2654 23.648C45.2841 23.618 45.3115 23.5908 45.3459 23.568C45.3804 23.5446 45.4213 23.5263 45.4666 23.514C45.5138 23.5006 45.5647 23.4938 45.6158 23.4941M10.793 22.5954C10.793 22.1506 11.2229 21.785 11.9254 21.785C12.5966 21.785 13.0497 22.1348 13.0497 22.5954C13.0497 23.0562 12.5966 23.406 11.9254 23.406C11.2229 23.406 10.793 23.0404 10.793 22.5954ZM13.8149 22.5954V21.3293H13.0033V21.6377C12.7459 21.4098 12.3554 21.2669 11.8244 21.2669C10.7783 21.2669 9.95732 21.8233 9.95732 22.5961C9.95732 23.369 10.7778 23.9254 11.8244 23.9254C12.3551 23.9254 12.7459 23.7822 13.0033 23.5544V23.8618H13.8141V22.5954H13.8149ZM41.2392 22.5954C41.2392 22.1506 41.669 21.785 42.3717 21.785C43.0437 21.785 43.4961 22.1348 43.4961 22.5954C43.4961 23.0562 43.0437 23.406 42.3717 23.406C41.6693 23.406 41.2392 23.0404 41.2392 22.5954ZM44.262 22.5954V20.313H43.4496V21.6377C43.1922 21.4098 42.8018 21.2669 42.2709 21.2669C41.2246 21.2669 40.4037 21.8233 40.4037 22.5961C40.4037 23.369 41.2242 23.9254 42.2709 23.9254C42.8018 23.9254 43.1922 23.7822 43.4496 23.5544V23.8618H44.262V22.5954ZM23.8885 21.7589C24.4115 21.7589 24.7475 21.9814 24.8331 22.373H22.8965C22.9832 22.0074 23.3104 21.7589 23.8886 21.7589M23.9048 21.2655C22.811 21.2655 22.0458 21.8052 22.0458 22.5947C22.0458 23.3997 22.8417 23.924 23.9592 23.924C24.5213 23.924 25.0363 23.8288 25.4892 23.5692L25.0914 23.1614C24.7786 23.331 24.3802 23.4262 24.0055 23.4262C23.4826 23.4262 23.0063 23.2619 22.8893 22.8061H25.6607C25.6687 22.7377 25.6768 22.6686 25.6768 22.5945C25.6687 21.8054 24.9492 21.2653 23.9044 21.2653M33.7037 22.5945C33.7037 22.1496 34.1335 21.7841 34.8359 21.7841C35.5073 21.7841 35.9603 22.1339 35.9603 22.5945C35.9603 23.0552 35.5073 23.4051 34.8359 23.4051C34.1335 23.4051 33.7034 23.0395 33.7034 22.5945M36.7253 22.5945V21.3293H35.9141V21.6377C35.6558 21.4098 35.2663 21.2669 34.7352 21.2669C33.6891 21.2669 32.8682 21.8233 32.8682 22.5961C32.8682 23.369 33.6887 23.9254 34.7352 23.9254C35.2663 23.9254 35.6558 23.7822 35.9141 23.5544V23.8618H36.7255V22.5954L36.7253 22.5945ZM29.1201 22.5945C29.1201 23.3625 29.9083 23.9238 31.1114 23.9238C31.6735 23.9238 32.0481 23.839 32.4531 23.622L32.0633 23.1771C31.7585 23.3256 31.4386 23.4051 31.0855 23.4051C30.4375 23.3997 29.9611 23.0819 29.9611 22.5945C29.9611 22.1072 30.4375 21.7896 31.0855 21.7841C31.4377 21.7841 31.7576 21.8635 32.0633 22.012L32.4531 21.5672C32.0474 21.3501 31.6729 21.2653 31.1114 21.2653C29.9083 21.2653 29.1201 21.8265 29.1201 22.5945M39.5835 21.2653C39.1152 21.2653 38.8103 21.4138 38.5994 21.6362V21.3293H37.795V23.8604H38.6076V22.4416C38.6076 22.0227 38.8729 21.7899 39.4036 21.7899C39.5773 21.7882 39.7498 21.8099 39.9111 21.8536L40.1613 21.3349C39.9817 21.2869 39.7474 21.2658 39.583 21.2658M17.8277 21.5306C17.4372 21.356 16.8991 21.2658 16.3056 21.2658C15.36 21.2658 14.7512 21.5732 14.7512 22.0761C14.7512 22.4888 15.2044 22.7434 16.0391 22.8228L16.4224 22.8598C16.8675 22.9022 17.0776 22.9817 17.0776 23.1246C17.0776 23.3204 16.782 23.4321 16.2269 23.4321C15.6647 23.4321 15.259 23.3102 14.9855 23.1672L14.604 23.5964C15.0492 23.8188 15.6113 23.9249 16.2201 23.9249C17.2981 23.9249 17.9228 23.5806 17.9228 23.0987C17.9228 22.6537 17.4311 22.4211 16.6188 22.3417L16.2362 22.304C15.8848 22.2732 15.6034 22.2252 15.6034 22.0555C15.6034 21.8705 15.8688 21.7591 16.314 21.7591C16.7904 21.7591 17.2516 21.8809 17.4776 21.9761L17.829 21.5312L17.8277 21.5306ZM28.3003 21.2662C27.8321 21.2662 27.5272 21.4148 27.3172 21.6371V21.3293H26.5128V23.8604H27.3244V22.4416C27.3244 22.0227 27.5898 21.7899 28.1205 21.7899C28.2941 21.7882 28.4666 21.8099 28.6279 21.8536L28.8781 21.3349C28.6986 21.2869 28.4643 21.2658 28.2999 21.2658M21.3742 21.3293H20.0469V20.5615H19.2264V21.3293H18.4695V21.8324H19.2264V22.9871C19.2264 23.5743 19.5626 23.9241 20.5227 23.9241C20.875 23.9241 21.2807 23.8501 21.5381 23.7284L21.3037 23.2571C21.0615 23.3523 20.7961 23.4003 20.5851 23.4003C20.1793 23.4003 20.0469 23.2306 20.0469 22.9766V21.8328H21.3742V21.3293ZM9.23958 23.8611V22.2726C9.23958 21.6743 8.6774 21.2718 7.77123 21.2664C7.2947 21.261 6.80329 21.3616 6.45931 21.7167C6.20188 21.4361 5.79613 21.2664 5.22583 21.2664C4.82715 21.2664 4.43761 21.3458 4.13256 21.6422V21.3293H3.32031V23.8604H4.1389V22.457C4.1389 22.0176 4.49821 21.7841 5.05318 21.7841C5.59207 21.7841 5.86483 22.0224 5.86483 22.4515V23.8601H6.68533V22.4567C6.68533 22.0173 7.05983 21.7838 7.59858 21.7838C8.1528 21.7838 8.41731 22.0221 8.41731 22.4512V23.8598L9.23958 23.8611Z" fill="white"/>
<path fill-rule="evenodd" clip-rule="evenodd" d="M46.0148 15.4412V15.071H45.8726L45.7082 15.325L45.5447 15.071H45.4021V15.4412H45.503V15.1623L45.6568 15.4029H45.7615L45.9151 15.1617V15.4412H46.0152H46.0148ZM45.113 15.4412V15.1344H45.295V15.0719H44.8301V15.1344H45.012V15.4412H45.113Z" fill="#F79410"/>
<path fill-rule="evenodd" clip-rule="evenodd" d="M29.8604 17.0291H17.5605V2.03833H29.8607L29.8604 17.0291Z" fill="#FF5F00"/>
<path fill-rule="evenodd" clip-rule="evenodd" d="M18.3393 9.53381C18.3393 6.49293 20.4389 3.78411 23.708 2.0384C21.2339 0.715336 18.172 -0.00318902 15.0212 1.06402e-05C7.25787 1.06402e-05 0.964844 4.26836 0.964844 9.53381C0.964844 14.7992 7.25787 19.0675 15.0212 19.0675C18.172 19.0707 21.234 18.3522 23.7083 17.0291C20.4393 15.2837 18.3393 12.5748 18.3393 9.53381" fill="#EB001B"/>
<path fill-rule="evenodd" clip-rule="evenodd" d="M46.4535 9.53381C46.4535 14.7992 40.1605 19.0675 32.3973 19.0675C29.2461 19.0706 26.1838 18.3522 23.709 17.0291C26.9792 15.2834 29.0787 12.5748 29.0787 9.53381C29.0787 6.49273 26.9792 3.78411 23.709 2.0384C26.1836 0.715335 29.2459 -0.00308969 32.397 9.98833e-06C40.1603 9.98833e-06 46.4534 4.26836 46.4534 9.53381" fill="#F79410"/>
</svg>


