<svg width="92" height="48" viewBox="0 0 92 48" fill="none" xmlns="http://www.w3.org/2000/svg">
<path d="M80.4244 37.835V37.9089H80.5564C80.5812 37.9091 80.6057 37.9059 80.6272 37.8995C80.6358 37.8963 80.6428 37.8921 80.6474 37.8871C80.652 37.8822 80.6542 37.8767 80.6538 37.8712C80.6542 37.8659 80.652 37.8605 80.6474 37.8557C80.6427 37.8509 80.6358 37.8467 80.6272 37.8437C80.6059 37.837 80.5813 37.8338 80.5564 37.8343H80.4244V37.835ZM80.5578 37.7828C80.6144 37.781 80.6705 37.7894 80.7164 37.8068C80.7349 37.8147 80.7495 37.8247 80.7591 37.836C80.7688 37.8474 80.7732 37.8598 80.772 37.8722C80.7729 37.8829 80.7693 37.8935 80.7616 37.9034C80.7539 37.9133 80.7423 37.9222 80.7274 37.9296C80.692 37.9457 80.6475 37.9553 80.6007 37.9571L80.7777 38.0624H80.6414L80.4785 37.9579H80.4258V38.0624H80.3118V37.783H80.5596L80.5578 37.7828ZM80.5224 38.1588C80.5822 38.1591 80.6415 38.1528 80.6963 38.1404C80.7491 38.1285 80.7971 38.1115 80.8379 38.0903C80.8787 38.0691 80.9112 38.044 80.9338 38.0164C80.9803 37.9579 80.9803 37.8921 80.9338 37.8336C80.9109 37.806 80.8784 37.781 80.8379 37.7597C80.7971 37.7385 80.7491 37.7215 80.6963 37.7096C80.6411 37.6978 80.582 37.6919 80.5224 37.6923C80.4618 37.692 80.4017 37.6979 80.3454 37.7096C80.2914 37.7213 80.2423 37.7383 80.2006 37.7597C80.138 37.7932 80.0957 37.8356 80.0789 37.8816C80.0621 37.9275 80.0715 37.9751 80.1061 38.0183C80.1277 38.046 80.1598 38.0711 80.2006 38.0921C80.2423 38.1135 80.2914 38.1305 80.3454 38.1422C80.4014 38.1547 80.4616 38.161 80.5224 38.1607M80.5224 37.625C80.678 37.625 80.8274 37.6568 80.9384 37.7137C80.9919 37.741 81.0345 37.7736 81.0637 37.8096C81.094 37.8465 81.1096 37.8862 81.1096 37.9264C81.1096 37.9665 81.094 38.0063 81.0637 38.0432C81.0338 38.079 80.9913 38.1115 80.9384 38.1391C80.8841 38.1662 80.8209 38.1881 80.7518 38.2037C80.6793 38.2198 80.6012 38.228 80.5224 38.2277C80.4427 38.228 80.3637 38.2198 80.2902 38.2037C80.2203 38.1885 80.1566 38.1666 80.1022 38.1391C80.0493 38.1105 80.0074 38.0769 79.9787 38.0401C79.9484 38.0031 79.9328 37.9634 79.9328 37.9232C79.9328 37.8831 79.9484 37.8433 79.9787 37.8064C80.0079 37.7705 80.0505 37.7379 80.104 37.7106C80.1576 37.6826 80.2216 37.6606 80.292 37.6459C80.3655 37.6298 80.4445 37.6216 80.5242 37.6219M26.3164 36.5458C26.3164 36.013 26.9855 35.5752 28.079 35.5752C29.124 35.5752 29.8292 35.9941 29.8292 36.5458C29.8292 37.0975 29.124 37.5164 28.079 37.5164C26.9855 37.5164 26.3164 37.0787 26.3164 36.5458M31.0205 36.5458V35.0294H29.757V35.3988C29.3563 35.1259 28.7484 34.9546 27.9218 34.9546C26.2934 34.9546 25.0154 35.621 25.0154 36.5466C25.0154 37.4721 26.2927 38.1385 27.9218 38.1385C28.7481 38.1385 29.3563 37.9671 29.757 37.6943V38.0624H31.019V36.5458H31.0205ZM73.7113 36.5458C73.7113 36.013 74.3804 35.5752 75.4742 35.5752C76.5204 35.5752 77.2245 35.9941 77.2245 36.5458C77.2245 37.0975 76.5204 37.5164 75.4742 37.5164C74.3807 37.5164 73.7113 37.0787 73.7113 36.5458ZM78.4168 36.5458V33.8123H77.1523V35.3988C76.7515 35.1259 76.1437 34.9546 75.3171 34.9546C73.6886 34.9546 72.4106 35.621 72.4106 36.5466C72.4106 37.4721 73.6879 38.1385 75.3171 38.1385C76.1437 38.1385 76.7515 37.9671 77.1523 37.6943V38.0624H78.4168V36.5458ZM46.7017 35.544C47.5159 35.544 48.0388 35.8104 48.1723 36.2793H45.1575C45.2924 35.8416 45.8018 35.544 46.7021 35.544M46.7272 34.953C45.0244 34.953 43.8332 35.5994 43.8332 36.5449C43.8332 37.5089 45.0722 38.1368 46.8118 38.1368C47.6869 38.1368 48.4884 38.0229 49.1936 37.712L48.5744 37.2235C48.0873 37.4267 47.4671 37.5406 46.884 37.5406C46.0698 37.5406 45.3285 37.3439 45.1462 36.7981H49.4605C49.4729 36.7161 49.4856 36.6334 49.4856 36.5447C49.4729 35.5996 48.3528 34.9528 46.7265 34.9528M61.9808 36.5447C61.9808 36.0119 62.6499 35.5741 63.7434 35.5741C64.7885 35.5741 65.4936 35.993 65.4936 36.5447C65.4936 37.0964 64.7885 37.5153 63.7434 37.5153C62.6499 37.5153 61.9804 37.0776 61.9804 36.5447M66.6845 36.5447V35.0294H65.4218V35.3988C65.0196 35.1259 64.4132 34.9546 63.5866 34.9546C61.9581 34.9546 60.6802 35.621 60.6802 36.5466C60.6802 37.4721 61.9574 38.1385 63.5866 38.1385C64.4132 38.1385 65.0196 37.9671 65.4218 37.6943V38.0624H66.6849V36.5458L66.6845 36.5447ZM54.8457 36.5447C54.8457 37.4644 56.0727 38.1367 57.9454 38.1367C58.8205 38.1367 59.4036 38.0351 60.0341 37.7752L59.4273 37.2423C58.9529 37.4202 58.4548 37.5153 57.9051 37.5153C56.8965 37.5089 56.1548 37.1284 56.1548 36.5447C56.1548 35.9611 56.8965 35.5808 57.9051 35.5741C58.4534 35.5741 58.9515 35.6692 59.4273 35.8471L60.0341 35.3142C59.4025 35.0544 58.8195 34.9528 57.9454 34.9528C56.0727 34.9528 54.8457 35.6249 54.8457 36.5447M71.1337 34.9528C70.4048 34.9528 69.9301 35.1307 69.6019 35.397V35.0294H68.3498V38.0607H69.6147V36.3615C69.6147 35.8599 70.0278 35.5811 70.8537 35.5811C71.1242 35.5791 71.3927 35.605 71.6439 35.6574L72.0333 35.0361C71.7536 34.9786 71.389 34.9533 71.133 34.9533M37.267 35.2705C36.6591 35.0614 35.8216 34.9533 34.8976 34.9533C33.4256 34.9533 32.4779 35.3214 32.4779 35.9238C32.4779 36.418 33.1835 36.723 34.4827 36.8181L35.0795 36.8624C35.7723 36.9132 36.0995 37.0083 36.0995 37.1795C36.0995 37.4139 35.6392 37.5476 34.7751 37.5476C33.9 37.5476 33.2684 37.4017 32.8426 37.2305L32.2489 37.7445C32.9417 38.0109 33.8168 38.138 34.7645 38.138C36.4425 38.138 37.415 37.7257 37.415 37.1485C37.415 36.6156 36.6496 36.3369 35.3851 36.2418L34.7896 36.1967C34.2427 36.1598 33.8044 36.1024 33.8044 35.8992C33.8044 35.6776 34.2175 35.5442 34.9107 35.5442C35.6523 35.5442 36.3703 35.6901 36.7222 35.8041L37.2691 35.2712L37.267 35.2705ZM53.5695 34.9539C52.8406 34.9539 52.3659 35.1318 52.0391 35.3981V35.0294H50.787V38.0607H52.0504V36.3615C52.0504 35.8599 52.4636 35.5811 53.2895 35.5811C53.5599 35.5791 53.8285 35.605 54.0796 35.6574L54.4691 35.0361C54.1894 34.9786 53.8247 34.9533 53.5688 34.9533M42.7878 35.0294H40.7218V34.1098H39.4445V35.0294H38.266V35.6319H39.4445V37.0148C39.4445 37.7181 39.9677 38.137 41.4624 38.137C42.0107 38.137 42.6423 38.0484 43.043 37.9026L42.678 37.3382C42.301 37.4522 41.8879 37.5096 41.5594 37.5096C40.9278 37.5096 40.7218 37.3064 40.7218 37.0022V35.6325H42.7878V35.0294ZM23.8981 38.0615V36.1591C23.8981 35.4426 23.023 34.9605 21.6123 34.9541C20.8706 34.9476 20.1056 35.068 19.57 35.4934C19.1693 35.1572 18.5377 34.9541 17.6498 34.9541C17.0293 34.9541 16.4228 35.0492 15.9481 35.4042V35.0294H14.6836V38.0607H15.958V36.38C15.958 35.8538 16.5174 35.5741 17.3812 35.5741C18.2202 35.5741 18.6446 35.8595 18.6446 36.3733V38.0604H19.9219V36.3796C19.9219 35.8534 20.5049 35.5737 21.3436 35.5737C22.2063 35.5737 22.618 35.8591 22.618 36.373V38.06L23.8981 38.0615Z" fill="#231F20"/>
<path d="M81.1448 27.978V27.5347H80.9236L80.6676 27.8389L80.4131 27.5347H80.1911V27.978H80.3483V27.644L80.5876 27.9321H80.7505L80.9898 27.6433V27.978H81.1455H81.1448ZM79.7412 27.978V27.6106H80.0244V27.5358H79.3008V27.6106H79.584V27.978H79.7398H79.7412Z" fill="#F79410"/>
<path d="M55.9966 29.879H36.8496V11.926H55.997L55.9966 29.879Z" fill="#FF5F00"/>
<path d="M38.064 20.9028C38.064 17.261 41.3322 14.0169 46.4215 11.9263C42.5692 10.3415 37.8044 9.48134 32.8986 9.48512C20.8138 9.48512 11.0176 14.5969 11.0176 20.9028C11.0176 27.2087 20.8138 32.3204 32.8986 32.3204C37.8046 32.3243 42.5694 31.4641 46.4218 29.8793C41.3329 27.789 38.064 24.5447 38.064 20.9028Z" fill="#EB001B"/>
<path d="M81.8279 20.9028C81.8279 27.2087 72.0317 32.3204 59.9468 32.3204C55.0404 32.3242 50.275 31.4641 46.4219 29.8793C51.5125 27.7886 54.7808 24.5447 54.7808 20.9028C54.7808 17.2608 51.5125 14.0169 46.4219 11.9263C50.2749 10.3415 55.0401 9.4814 59.9465 9.48512C72.0313 9.48512 81.8275 14.5969 81.8275 20.9028" fill="#F79E1B"/>
</svg>
