<svg width="90" height="25.9" viewBox="0 0 70 23" fill="none" xmlns="http://www.w3.org/2000/svg">
<path d="M51.6727 13.3202C51.6727 13.6845 50.3498 14.1323 49.2739 14.1323H48.2942C48.2953 11.9028 48.2953 9.40329 48.2942 8.95963C48.2938 8.94649 48.3013 8.93346 48.3162 8.92127C48.3312 8.90909 48.3533 8.89799 48.3813 8.88862C48.4093 8.87924 48.4427 8.87177 48.4795 8.86664C48.5163 8.86151 48.5558 8.85882 48.5958 8.85872H51.3698C51.5364 8.85872 51.6728 8.90465 51.6728 8.96042V13.3202H51.6727ZM47.1524 14.9147C47.1524 15.1453 46.809 15.5316 44.5086 15.5316C40.0506 15.5316 37.3139 14.384 37.3139 13.5609C37.3139 13.5609 37.309 10.8997 37.309 8.96047C37.3085 8.94731 37.316 8.93426 37.3309 8.92205C37.3459 8.90985 37.3681 8.89874 37.3961 8.88936C37.4242 8.87998 37.4577 8.87252 37.4946 8.8674C37.5315 8.86229 37.5711 8.85962 37.6111 8.85956H40.3884C40.5551 8.85956 40.6921 8.90519 40.6921 8.96131V13.2373C40.6921 13.9438 42.3939 14.5169 44.4917 14.5169H47.1539L47.1524 14.9147ZM51.5803 8.47523H48.3848C47.7054 8.47523 47.1521 8.66168 47.1521 8.89041V14.1327H44.4898C43.0209 14.1327 41.8305 13.7318 41.8305 13.2372V8.89041C41.8305 8.66114 41.2779 8.47503 40.5971 8.47503H37.4003C36.7195 8.47503 36.1671 8.66114 36.1661 8.89041C36.1644 10.7858 36.171 13.561 36.171 13.561C36.1715 15.0198 41.0267 15.9155 44.5077 15.9155C46.8426 15.9155 48.2927 15.5312 48.2927 14.912V14.5168H49.2734C50.9936 14.5168 52.8131 13.9018 52.8131 13.3202V8.89041C52.8147 8.66114 52.2623 8.47503 51.5805 8.47503V8.47523H51.5803ZM32.6946 14.0395C32.695 14.0527 32.6875 14.0657 32.6725 14.0779C32.6575 14.0901 32.6354 14.1012 32.6073 14.1105C32.5792 14.1199 32.5458 14.1273 32.509 14.1324C32.4721 14.1375 32.4326 14.1402 32.3926 14.1403H29.6153C29.4463 14.1403 29.3109 14.0942 29.3116 14.0388V9.7627C29.3116 9.05624 27.6094 8.48319 25.512 8.48319H22.8497V8.08531C22.8497 7.8552 23.1931 7.4684 25.4935 7.4684C29.9516 7.4684 32.689 8.61595 32.689 9.43904C32.689 9.43904 32.694 12.1132 32.694 14.0395H32.6946V14.0395ZM18.6309 14.1411C18.4619 14.1395 18.3268 14.0948 18.3288 14.0392V9.68028C18.3288 9.31592 19.6518 8.86752 20.7273 8.86752H21.7078C21.7063 12.0603 21.7063 13.694 21.7078 14.039C21.7086 14.0657 21.6772 14.0914 21.6204 14.1105C21.5637 14.1295 21.4863 14.1404 21.4052 14.1408H18.6314L18.6309 14.1411ZM33.8289 9.43909C33.8295 7.9802 28.9741 7.08447 25.4936 7.08447C23.1581 7.08447 21.7078 7.46875 21.7078 8.08794V8.48319H20.7277C19.007 8.48319 17.1875 9.09812 17.1875 9.67983V14.1096C17.1875 14.3388 17.7399 14.5249 18.4204 14.5249H21.6153C21.6351 14.5249 21.6521 14.5232 21.672 14.5232C22.3249 14.5128 22.848 14.3322 22.848 14.1096V8.86722H25.5108C26.979 8.86722 28.1701 9.26821 28.1701 9.76275V14.1096C28.1701 14.3389 28.7226 14.525 29.403 14.525H32.6004C33.2812 14.525 33.8333 14.3394 33.8333 14.1096C33.8357 12.1789 33.8294 9.43899 33.8294 9.43899L33.8289 9.43909Z" fill="white"/>
</svg>

