<svg width="85" height="25.9" viewBox="0 0 64 24" fill="none" xmlns="http://www.w3.org/2000/svg">
<path fill-rule="evenodd" clip-rule="evenodd" d="M63.0479 11.9788C63.0479 10.4626 59.7704 9.3759 55.727 9.3759C51.6836 9.3759 48.4062 10.4626 48.4062 11.9788L48.3946 14.1801C48.3946 14.4082 48.888 14.593 49.4962 14.593C50.1045 14.593 50.6072 14.4082 50.6072 14.1801L50.6092 11.9788C50.6092 10.9188 52.9002 10.202 55.727 10.202C58.5532 10.202 60.8449 10.9188 60.8449 11.9788L60.8565 14.1801C60.8565 14.2896 60.9725 14.3947 61.1791 14.4721C61.3856 14.5496 61.6657 14.5931 61.9578 14.5931C62.2499 14.5931 62.53 14.5496 62.7366 14.4721C62.9431 14.3947 63.0592 14.2896 63.0592 14.1801L63.0479 11.9788ZM15.5947 11.9788C15.5947 10.4626 12.3169 9.3759 8.27387 9.3759C4.23079 9.3759 0.953027 10.4626 0.953027 11.9788L0.941406 14.1801C0.941406 14.2343 0.969895 14.288 1.02525 14.3381C1.0806 14.3882 1.16173 14.4338 1.264 14.4721C1.36627 14.5104 1.48768 14.5409 1.6213 14.5616C1.75492 14.5823 1.89812 14.593 2.04274 14.593C2.65134 14.593 3.1537 14.4082 3.1537 14.1801L3.15569 11.9788C3.15569 10.9188 5.447 10.202 8.27354 10.202C11.0997 10.202 13.3914 10.9188 13.3914 11.9788L13.403 14.1801C13.403 14.2896 13.519 14.3947 13.7256 14.4721C13.9321 14.5496 14.2122 14.5931 14.5043 14.5931C14.7964 14.5931 15.0766 14.5496 15.2831 14.4721C15.4896 14.3947 15.6057 14.2896 15.6057 14.1801L15.5947 11.9788ZM38.7821 10.1062C41.5711 10.1062 43.8332 10.9542 43.8332 12.0001C43.8332 13.0461 41.5714 13.8941 38.7821 13.8941C35.9927 13.8941 33.7316 13.0461 33.7316 12.0001C33.7316 10.9541 35.9927 10.1062 38.7821 10.1062V9.28003C34.7765 9.28003 31.5286 10.4979 31.5286 12.0001C31.5286 13.5023 34.7762 14.7202 38.7821 14.7202C42.7883 14.7202 46.0362 13.5024 46.0362 12.0001C46.0362 10.4979 42.7886 9.28003 38.7821 9.28003V10.1062V10.1062ZM29.9867 13.9734C28.6878 14.4326 26.9161 14.7202 24.9907 14.7202C20.9848 14.7202 17.7373 13.5024 17.7373 12.0001C17.7373 10.4979 20.9848 9.28003 24.9907 9.28003C25.9434 9.27957 26.887 9.3497 27.7673 9.48641C28.6475 9.62312 29.447 9.82371 30.1199 10.0766C30.3858 10.2049 30.348 10.3473 30.158 10.4329L25.9197 12.3207C25.824 12.3613 25.7079 12.3945 25.5779 12.4183C25.448 12.4421 25.3068 12.4561 25.1625 12.4595C25.0182 12.4628 24.8735 12.4555 24.7367 12.4379C24.5999 12.4203 24.4737 12.3928 24.3653 12.3569C24.2569 12.321 24.1685 12.2774 24.105 12.2287C24.0414 12.18 24.0041 12.127 23.9952 12.0729C23.9862 12.0188 24.0058 11.9645 24.0528 11.9132C24.0997 11.8619 24.1732 11.8146 24.2689 11.774L27.5125 10.3489C26.7969 10.2031 25.8626 10.1062 24.991 10.1062C22.202 10.1062 19.9406 10.9542 19.9406 12.0001C19.9406 13.0461 22.202 13.8941 24.991 13.8941C26.3085 13.8941 27.53 13.6991 28.4295 13.3892C28.5309 13.3494 28.6525 13.3175 28.7872 13.2955C28.9219 13.2735 29.0669 13.2619 29.2138 13.2612C29.3607 13.2605 29.5065 13.2709 29.6425 13.2917C29.7786 13.3125 29.9022 13.3433 30.006 13.3822C30.1099 13.4212 30.1919 13.4676 30.2473 13.5186C30.3027 13.5696 30.3302 13.6243 30.3284 13.6794C30.3266 13.7344 30.2955 13.7888 30.2368 13.8393C30.1781 13.8898 30.0931 13.9354 29.9867 13.9734C29.9867 13.9734 30.1863 13.8987 29.9867 13.9734Z" fill="white"/>
</svg>
